<svg width="306" height="112" viewBox="0 0 306 112" fill="none" xmlns="http://www.w3.org/2000/svg">
<path d="M126.365 37.9223V49.531H139.274C141.579 49.531 143.445 49.1025 144.872 48.2453C146.322 47.3639 147.047 45.816 147.047 43.6017C147.047 41.1488 146.096 39.5291 144.194 38.7425C142.554 38.1939 140.462 37.9196 137.919 37.9196L126.365 37.9223ZM126.365 58.2466V72.2841H139.274C141.579 72.2841 143.374 71.9745 144.658 71.3553C146.987 70.2121 148.152 68.0213 148.152 64.7829C148.152 62.0446 147.023 60.1636 144.765 59.14C143.505 58.5687 141.734 58.2711 139.452 58.2473L126.365 58.2466ZM141.412 28.7781C147.853 28.8734 152.417 30.7426 155.103 34.3857C156.72 36.6246 157.528 39.3035 157.528 42.4225C157.528 45.6374 156.72 48.2211 155.103 50.1737C154.199 51.2691 152.868 52.2691 151.109 53.1738C153.795 54.1504 155.816 55.6983 157.172 57.8175C158.552 59.9367 159.241 62.5084 159.241 65.5326C159.241 68.6521 158.456 71.4502 156.887 73.9268C155.889 75.5695 154.641 76.9506 153.143 78.07C151.455 79.3572 149.457 80.2383 147.151 80.7136C144.87 81.1898 142.386 81.4279 139.699 81.4279H115.881V28.7785L141.412 28.7781Z" fill="#00FF90"/>
<path d="M165.108 28.7781H176.09V71.962H202.119V81.4275H165.108V28.7781Z" fill="#00FF90"/>
<path d="M231.239 73.6485C235.589 73.6485 239.036 72.0411 241.579 68.8265C244.147 65.6116 245.43 61.0398 245.43 55.1111C245.43 49.207 244.147 44.647 241.579 41.431C239.036 38.1916 235.589 36.5718 231.239 36.5718C226.889 36.5718 223.418 38.1793 220.828 41.3942C218.237 44.6075 216.941 49.1793 216.941 55.1096C216.941 61.0398 218.237 65.6116 220.828 68.8249C223.419 72.0406 226.889 73.6485 231.239 73.6485ZM256.412 55.1103C256.412 64.5643 253.762 71.8033 248.461 76.8273C244.492 80.9231 238.751 82.971 231.239 82.971C223.727 82.971 217.987 80.923 214.018 76.8269C208.693 71.8026 206.031 64.5637 206.031 55.11C206.031 45.4661 208.693 38.2271 214.018 33.393C217.988 29.2975 223.728 27.2497 231.239 27.2497C238.75 27.2497 244.49 29.2976 248.461 33.3934C253.762 38.2275 256.413 45.4665 256.412 55.1103H256.412Z" fill="#00FF90"/>
<path d="M271.133 81.4047L258.369 81.3051L275.477 54.6126L259.595 28.6635L272.716 28.7658L305.004 81.668L291.669 81.5646L281.824 63.5566L271.133 81.4047Z" fill="#00FF90"/>
<path d="M292.84 28.5432L305.605 28.6424L289.957 52.2693L283.861 42.3577C286.854 37.753 289.847 33.1482 292.84 28.5432Z" fill="#00FF90"/>
<path d="M64.556 64.8138L48.8111 73.9522L33.0244 64.8195V46.554L48.8111 37.4587L64.562 46.554L64.556 64.8138Z" fill="#00DA7B"/>
<path d="M48.8851 56.7875L33.0244 64.819V46.5536L48.8851 37.4215" fill="url(#paint0_linear_184_2355)"/>
<path d="M48.8853 56.7892L64.5558 64.8126V46.5285L48.8853 37.4225" fill="url(#paint1_linear_184_2355)"/>
<path d="M18.9362 72.9138L0.148499 83.6057C0.111124 64.8569 0.0370414 40.9486 0 22.2007L19.072 13.6163C19.0266 33.3819 18.9813 53.1477 18.9362 72.9138Z" fill="url(#paint2_linear_184_2355)"/>
<path d="M46.4421 87.4472L26.8128 98.5554L0.185059 83.6047L18.9727 72.9127L46.4421 87.4472Z" fill="url(#paint3_linear_184_2355)"/>
<path d="M31.5728 30.0707V8.16723C37.3539 5.4573 43.5795 2.70993 49.3593 0V21.8663C43.8388 24.6137 37.0572 27.3236 31.5728 30.0707Z" fill="url(#paint4_linear_184_2355)"/>
<path d="M49.3218 21.8663V0C65.3303 9.13272 81.5244 18.8592 97.5333 27.9919C97.7185 35.7509 97.3108 42.8788 97.5333 50.6378C81.4514 41.0598 65.3808 31.4693 49.3218 21.8663Z" fill="url(#paint5_linear_184_2355)"/>
<path d="M77.9011 42.6597L97.5667 54.3546C97.5558 64.0797 97.5447 73.8047 97.5334 83.5296C90.9744 80.1514 84.4521 76.6244 77.8931 73.2833L77.9011 42.6597Z" fill="url(#paint6_linear_184_2355)"/>
<path d="M77.8946 73.2841C85.3058 77.0338 91.0499 80.1893 97.5348 83.5304C81.2667 92.8487 65.0355 102.056 48.8047 111.374L29.7334 100.48C37.735 95.9488 45.7402 91.4219 53.7489 86.8993C61.7948 82.3553 69.8433 77.8169 77.8946 73.2841Z" fill="url(#paint7_linear_184_2355)"/>
<defs>
<linearGradient id="paint0_linear_184_2355" x1="33.0244" y1="51.1203" x2="48.8851" y2="51.1203" gradientUnits="userSpaceOnUse">
<stop stop-color="#00FF90"/>
<stop offset="1" stop-color="#00DA7B"/>
</linearGradient>
<linearGradient id="paint1_linear_184_2355" x1="49.3698" y1="52.9466" x2="66.2989" y2="48.7506" gradientUnits="userSpaceOnUse">
<stop stop-color="#00FF90"/>
<stop offset="1" stop-color="#00DA7B"/>
</linearGradient>
<linearGradient id="paint2_linear_184_2355" x1="26.83" y1="63.3986" x2="7.5623" y2="46.9121" gradientUnits="userSpaceOnUse">
<stop stop-color="#00FF90"/>
<stop offset="1" stop-color="#00DA7B"/>
</linearGradient>
<linearGradient id="paint3_linear_184_2355" x1="28.7967" y1="98.0854" x2="14.8726" y2="66.3069" gradientUnits="userSpaceOnUse">
<stop stop-color="#00FF90"/>
<stop offset="1" stop-color="#00DA7B"/>
</linearGradient>
<linearGradient id="paint4_linear_184_2355" x1="31.5728" y1="15.0353" x2="62.9582" y2="15.0353" gradientUnits="userSpaceOnUse">
<stop stop-color="#00FF90"/>
<stop offset="1" stop-color="#00DA7B"/>
</linearGradient>
<linearGradient id="paint5_linear_184_2355" x1="93.972" y1="33.832" x2="46.6925" y2="14.3102" gradientUnits="userSpaceOnUse">
<stop stop-color="#00FF90"/>
<stop offset="1" stop-color="#00DA7B"/>
</linearGradient>
<linearGradient id="paint6_linear_184_2355" x1="88.8093" y1="59.8764" x2="82.8637" y2="77.3417" gradientUnits="userSpaceOnUse">
<stop stop-color="#00FF90"/>
<stop offset="1" stop-color="#00DA7B"/>
</linearGradient>
<linearGradient id="paint7_linear_184_2355" x1="84.8894" y1="108.496" x2="36.1876" y2="70.8488" gradientUnits="userSpaceOnUse">
<stop stop-color="#00FF90"/>
<stop offset="1" stop-color="#00DA7B"/>
</linearGradient>
</defs>
</svg>
